<svg width="153" height="32" viewBox="0 0 153 32" fill="none" xmlns="http://www.w3.org/2000/svg">
<path d="M19.0541 19.3333C18.5158 21.5035 14.8466 20.3262 13.6708 20.0425L14.6341 16.1843C15.8099 16.4822 19.6208 17.0638 19.0541 19.3333Z" fill="#3D3D3D"/>
<path d="M19.5783 13.6879H19.5925C19.0966 15.6879 16.0508 14.6666 15.0591 14.4113L15.9375 10.9077C16.915 11.1488 20.1025 11.6169 19.5783 13.6879Z" fill="#3D3D3D"/>
<path d="M19.8617 0.496397C19.8475 0.496397 19.8334 0.496397 19.8192 0.482212C11.2625 -1.63126 2.59253 3.58859 0.467531 12.156C-1.65747 20.7233 3.55586 29.4042 12.1267 31.5319C20.6834 33.6595 29.3534 28.4397 31.4784 19.8581C33.6034 11.3049 28.4042 2.65243 19.8617 0.496397ZM23.0492 13.7163C22.8084 15.2907 21.9584 16.0283 20.8109 16.2978C22.3834 17.1205 23.1909 18.3687 22.4259 20.5531C21.4767 23.2624 19.2384 23.4893 16.235 22.9219L15.5125 25.8297L13.7559 25.39L14.4642 22.4964C14.0109 22.3829 13.5434 22.2694 13.0759 22.1418L12.3534 25.0212L10.5967 24.5815L11.3192 21.6737L10.0725 21.3475L7.7917 20.7801L8.65586 18.7801C8.65586 18.7801 9.84586 19.0921 9.93086 19.0921C10.2709 19.2056 10.625 19.007 10.7384 18.6808L11.9 14.0709L12.0842 14.1134C12.0275 14.085 11.9709 14.0709 11.9 14.0567L12.7217 10.7801C12.7642 10.2836 12.3959 9.84391 11.9 9.78718C11.9 9.75881 10.625 9.47512 10.625 9.47512L11.0925 7.60278L13.515 8.21271L14.6342 8.46803L15.3567 5.5886L17.1134 6.02831L16.4192 8.86519C16.8867 8.96448 17.3684 9.07796 17.8217 9.19143L18.5159 6.38292L20.2867 6.82264L19.55 9.6737C21.7459 10.4397 23.3609 11.5886 23.0492 13.7163Z" fill="#3D3D3D"/>
<path d="M53.9325 14.9929C53.6491 13.9858 53.1816 13.0496 52.53 12.2269C51.8925 11.4326 51.0991 10.7943 50.1783 10.3688C49.13 9.88652 47.9825 9.65957 46.8208 9.67376H46.835C46.2541 9.67376 45.6591 9.74468 45.0925 9.87234C44.54 10.0142 44.0016 10.1986 43.4775 10.4397L45.9991 0L39.7375 0.992908L32.725 30.4113C33.5183 30.7943 34.3541 31.0922 35.2183 31.305C36.04 31.5177 36.8758 31.6879 37.7116 31.8014C38.4058 31.9007 39.1 31.9574 39.7941 31.9858H41.0691C42.8825 32 44.6675 31.6312 46.325 30.8936C47.8975 30.2128 49.3283 29.2199 50.5325 27.9858C53.0116 25.4043 54.4 21.9716 54.4 18.3972C54.3858 17.2482 54.2441 16.0993 53.9325 14.9929ZM48.3791 18.8369C48.3791 19.8723 48.2091 20.9078 47.855 21.8723C47.515 22.8085 47.0333 23.7021 46.4241 24.4823C45.8291 25.234 45.0925 25.844 44.2566 26.2979C43.435 26.7518 42.5283 26.9929 41.5933 26.9929L40.885 27.0071C40.715 27.0071 40.5591 27.0071 40.3891 26.9787C40.2616 26.9645 40.1341 26.9504 40.0066 26.922L39.5816 26.8369L42.2308 15.7589C42.6983 15.3333 43.265 15.0496 43.8741 14.9078C44.37 14.7943 44.8658 14.7234 45.3758 14.7092C46.5375 14.7092 47.3308 15.078 47.7558 15.8014C48.2091 16.7376 48.4358 17.7872 48.3791 18.8369Z" fill="#3D3D3D"/>
<path d="M59.9249 10.1277L54.8674 31.4185H60.8599L65.9599 10.1277H59.9249ZM66.9091 1.16315C66.2574 0.68088 65.4783 0.411377 64.6566 0.411377C64.1041 0.411377 63.5658 0.524852 63.0558 0.737618C62.5741 0.950384 62.1208 1.23407 61.7383 1.60287C61.3558 1.97166 61.0441 2.41138 60.8174 2.90783C60.5908 3.40428 60.4633 3.95748 60.4774 4.49648C60.4066 5.37592 60.7891 6.24116 61.4691 6.78017C62.1208 7.27662 62.9141 7.53194 63.7358 7.51776C64.2883 7.51776 64.8266 7.41847 65.3224 7.19152C65.8041 6.97875 66.2574 6.69506 66.6399 6.32627C67.0224 5.95748 67.3341 5.51776 67.5466 5.03549C67.7733 4.53904 67.8866 3.98584 67.8866 3.43265C67.9858 2.56741 67.6033 1.70216 66.9091 1.16315Z" fill="#3D3D3D"/>
<path d="M71.1875 4.82269L77.4492 3.85815L75.8908 10.1277H82.6058L81.4017 15.0638H74.7433L72.9725 22.4965C72.8167 23.0638 72.7175 23.6454 72.6892 24.2411C72.6467 24.7234 72.7175 25.1915 72.8875 25.6454C73.0575 26.0426 73.3692 26.3688 73.7517 26.5532C74.3183 26.8085 74.9275 26.922 75.5508 26.8794C76.1883 26.8794 76.8117 26.8227 77.435 26.695C78.0583 26.5674 78.6675 26.4113 79.2767 26.1986L79.73 30.8227C78.8658 31.1348 77.9875 31.3901 77.095 31.5887C75.99 31.8298 74.8708 31.9291 73.7375 31.9149C71.8817 31.9149 70.4367 31.6312 69.4167 31.0922C68.4533 30.5957 67.6883 29.8014 67.235 28.8227C66.7958 27.7872 66.5975 26.6525 66.6683 25.5177C66.7392 24.1986 66.9233 22.8794 67.235 21.5887L71.2017 4.83688L71.1875 4.82269Z" fill="#3D3D3D"/>
<path d="M82.3933 22.9077C82.3791 21.1346 82.6766 19.39 83.2858 17.7304C83.8524 16.1559 84.7166 14.7091 85.8358 13.4751C86.9691 12.241 88.3291 11.2765 89.8591 10.6098C91.5308 9.88641 93.3158 9.5318 95.1291 9.56017C96.2199 9.54599 97.3108 9.65946 98.3874 9.9006C99.2799 10.1134 100.158 10.4254 100.994 10.8084L98.9116 15.4892C98.3733 15.2765 97.8066 15.0779 97.2399 14.9077C96.5458 14.7091 95.8374 14.624 95.1149 14.6382C93.3016 14.5673 91.5591 15.3332 90.3833 16.7233C89.2216 18.0992 88.6266 19.9431 88.6266 22.2694C88.5699 23.4467 88.8816 24.6098 89.5191 25.6027C90.1141 26.4538 91.2049 26.8793 92.7916 26.8793C93.5566 26.8793 94.3074 26.7942 95.0583 26.6382C95.7241 26.4963 96.3758 26.2978 96.9991 26.0283L97.4383 30.851C96.6166 31.163 95.7949 31.4183 94.9449 31.6453C93.8683 31.8864 92.7774 31.9999 91.6724 31.9857C90.2133 32.0283 88.7541 31.7871 87.3941 31.2623C86.3033 30.8226 85.3258 30.1559 84.5324 29.3049C83.7674 28.4822 83.2149 27.4892 82.8891 26.4112C82.5491 25.2765 82.3791 24.0992 82.3933 22.9077Z" fill="#3D3D3D"/>
<path d="M120.374 14.7944C120.048 13.7732 119.524 12.837 118.816 12.0285C118.093 11.2341 117.201 10.6242 116.195 10.2271C115.019 9.77315 113.758 9.56039 112.497 9.57457C110.727 9.5462 108.97 9.97174 107.412 10.8086C105.967 11.6029 104.677 12.681 103.657 13.9859C102.637 15.2909 101.858 16.7661 101.348 18.3405C100.838 19.9008 100.569 21.5462 100.569 23.1916C100.541 24.3973 100.711 25.5888 101.065 26.7235C101.391 27.7448 101.915 28.6951 102.623 29.5037C103.332 30.298 104.224 30.9221 105.23 31.3193C106.42 31.7732 107.681 32.0001 108.956 31.9717C110.755 32.0001 112.526 31.5746 114.112 30.7377C115.557 29.9576 116.832 28.8654 117.852 27.5604C118.858 26.2554 119.623 24.7661 120.119 23.1916C120.615 21.6171 120.884 19.9859 120.884 18.3405C120.898 17.1349 120.728 15.9434 120.374 14.7944ZM114.906 18.9505C114.906 19.8441 114.778 20.7377 114.566 21.6029C114.353 22.5107 113.999 23.376 113.532 24.1703C113.092 24.9221 112.526 25.5888 111.832 26.1136C111.152 26.6242 110.33 26.8937 109.48 26.8795C108.347 26.8795 107.567 26.4966 107.128 25.7448C106.647 24.7661 106.434 23.6739 106.491 22.5817C106.491 21.688 106.604 20.7944 106.831 19.9292C107.057 19.0214 107.412 18.1561 107.893 17.3618C108.318 16.61 108.899 15.9434 109.579 15.4185C110.259 14.9079 111.081 14.6384 111.931 14.6526H111.917C113.05 14.6526 113.829 15.0356 114.268 15.7873C114.75 16.7661 114.962 17.8583 114.906 18.9505Z" fill="#3D3D3D"/>
<path d="M126.494 10.1277L121.437 31.4185H127.429L132.515 10.1277H126.494ZM133.478 1.16315C132.827 0.666696 132.033 0.411377 131.212 0.411377C130.659 0.411377 130.121 0.524852 129.625 0.737618C129.143 0.950384 128.69 1.24826 128.307 1.60287C127.939 1.97166 127.627 2.41138 127.415 2.90783C127.188 3.40428 127.061 3.95748 127.075 4.49648C127.004 5.37592 127.387 6.24116 128.067 6.78017C128.718 7.27662 129.512 7.53194 130.333 7.51776C130.872 7.51776 131.41 7.41847 131.92 7.19152C132.402 6.97875 132.855 6.69506 133.237 6.32627C133.62 5.95748 133.917 5.51776 134.144 5.03549C134.371 4.53904 134.498 3.98584 134.498 3.43265C134.555 2.56741 134.172 1.70216 133.478 1.16315Z" fill="#3D3D3D"/>
<path d="M136.836 11.0921C137.289 10.9644 137.799 10.8084 138.337 10.624C138.876 10.4538 139.499 10.2836 140.193 10.1275C140.958 9.97151 141.723 9.84385 142.488 9.75875C143.452 9.65946 144.415 9.60272 145.378 9.6169C148.537 9.6169 150.705 10.5389 151.909 12.3687C152.632 13.4751 152.986 14.8084 153 16.397V16.5105C153 17.546 152.844 18.6665 152.547 19.9006L149.798 31.39H143.792L146.455 20.1417C146.611 19.4467 146.738 18.7658 146.837 18.0992C146.937 17.5176 146.937 16.9361 146.837 16.3545C146.738 15.8722 146.469 15.4467 146.087 15.1346C145.548 14.78 144.925 14.624 144.287 14.6665C143.494 14.6665 142.687 14.7517 141.907 14.9077L137.983 31.4183H131.934L136.836 11.0921Z" fill="#3D3D3D"/>
</svg>
