<svg width="18" height="18" viewBox="0 0 18 18" fill="none" xmlns="http://www.w3.org/2000/svg">
<g clip-path="url(#clip0_44_50)">
<path fill-rule="evenodd" clip-rule="evenodd" d="M15.6326 7.22368C15.8674 5.32895 14.4587 4.38158 12.5804 3.67105L13.1674 1.06579L11.6413 0.710526L11.0543 3.19737C10.7022 3.07895 10.2326 2.96053 9.76304 2.96053L10.4674 0.355263L8.9413 0L8.23696 2.60526C7.88478 2.48684 7.65 2.36842 7.29783 2.36842L5.18478 1.77632L4.71522 3.43421L5.88913 3.67105C6.47609 3.78947 6.59348 4.26316 6.59348 4.61842L5.88913 7.57895C5.88913 7.57895 5.88913 7.57895 6.00652 7.57895C6.00652 7.57895 6.00652 7.57895 5.88913 7.57895L4.83261 11.6053C4.71522 11.8421 4.59783 12.0789 4.12826 12.0789L2.95435 11.8421L2.25 13.5L4.24565 13.9737C4.59783 14.0921 4.95 14.2105 5.30217 14.3289L4.71522 16.9342L6.2413 17.2895L6.94565 14.6842C7.41522 14.8026 7.76739 14.9211 8.11957 15.0395L7.53261 17.5263L9.0587 17.8816L9.64565 15.3947C12.2283 15.8684 14.2239 15.6316 15.0457 13.2632C15.75 11.3684 15.0457 10.1842 13.637 9.47368C14.6935 9.35526 15.5152 8.64474 15.6326 7.22368ZM12.1109 12.1974C11.6413 14.2105 8.47174 13.1447 7.41522 12.9079L8.23696 9.47368C9.29348 9.71053 12.6978 10.1842 12.1109 12.1974ZM12.5804 7.22368C12.2283 9 9.52826 8.05263 8.58913 7.81579L9.41087 4.73684C10.2326 4.97368 13.05 5.32895 12.5804 7.22368Z" fill="#1AC9B0"/>
</g>
<defs>
<clipPath id="clip0_44_50">
<rect width="13.5" height="18" fill="white" transform="translate(2.25)"/>
</clipPath>
</defs>
</svg>
