<svg width="21" height="18" viewBox="0 0 21 18" fill="none" xmlns="http://www.w3.org/2000/svg">
<path d="M19.1979 0H1.80206C0.80492 0 0 0.834025 0 1.86722V13.2822C0 14.3154 0.80492 15.1494 1.80206 15.1494H7.3464L9.11842 17.334C9.83924 18.2241 11.1547 18.2178 11.8756 17.334L13.6476 15.1494H19.1919C19.7506 15.1494 20.2491 14.888 20.5795 14.471C20.5975 14.4461 20.6156 14.4274 20.6336 14.4025C20.8558 14.0913 20.994 13.7054 20.994 13.2822V1.86722C21 0.834025 20.1951 0 19.1979 0ZM19.1979 13.2822H12.8126L10.5 16.1328L8.18736 13.2822H1.80206V1.86722H19.1979V13.2822Z" fill="#1AC9B0"/>
<path d="M15.4702 5.36062H3.77979C3.6259 5.36062 3.5 5.23016 3.5 5.07072V4.17201C3.5 4.01257 3.6259 3.88211 3.77979 3.88211H15.4702C15.6241 3.88211 15.75 4.01257 15.75 4.17201V5.07072C15.75 5.23499 15.6241 5.36062 15.4702 5.36062Z" fill="#254C47"/>
<path d="M12.9894 8.5176H3.77979C3.6259 8.5176 3.5 8.38714 3.5 8.2277V7.329C3.5 7.16955 3.6259 7.03909 3.77979 7.03909H12.9894C13.1433 7.03909 13.2692 7.16955 13.2692 7.329V8.2277C13.2692 8.38714 13.148 8.5176 12.9894 8.5176Z" fill="#3A7069"/>
<path d="M14.7941 11.6746H3.77979C3.6259 11.6746 3.5 11.5441 3.5 11.3847V10.486C3.5 10.3265 3.6259 10.1961 3.77979 10.1961H14.7987C14.9526 10.1961 15.0785 10.3265 15.0785 10.486V11.3798C15.0785 11.5441 14.9526 11.6746 14.7941 11.6746Z" fill="#254C47"/>
</svg>
