<svg width="12" height="12" viewBox="0 0 12 12" fill="none" xmlns="http://www.w3.org/2000/svg">
<path d="M8.4 2.87988H0.72C0.324 2.87988 0 3.20388 0 3.59988V11.2799C0 11.6759 0.324 11.9999 0.72 11.9999H8.4C8.796 11.9999 9.12 11.6759 9.12 11.2799V3.59988C9.12 3.20388 8.796 2.87988 8.4 2.87988ZM7.68 10.5599H1.44V4.31988H7.68V10.5599Z" fill="#4C4444"/>
<path d="M12 0.72V8.4C12 8.796 11.676 9.12 11.28 9.12H9.12V7.68H10.56V1.44H4.32V2.88H2.88V0.72C2.88 0.324 3.204 0 3.6 0H11.28C11.676 0 12 0.324 12 0.72Z" fill="#2C2C2C"/>
</svg>
