<svg width="19" height="16" viewBox="0 0 19 16" fill="none" xmlns="http://www.w3.org/2000/svg">
<path d="M17.9826 5.08105L14.032 0.27848C13.8867 0.10171 13.6742 0 13.4506 0H5.54936C5.32572 0 5.11331 0.101752 4.96795 0.27848L1.01735 5.08113C0.770661 5.38099 0.772592 5.82361 1.0219 6.12117L8.92311 15.5515C9.06842 15.7249 9.27878 15.8244 9.5 15.8244C9.72118 15.8244 9.93159 15.7248 10.0769 15.5515L17.9781 6.12117C18.2274 5.82361 18.2293 5.38099 17.9826 5.08105ZM8.79526 1.59155H10.2047L11.3504 4.8027H7.64959L8.79526 1.59155ZM5.90173 1.59155H7.16305L6.01735 4.8027H3.26028L5.90173 1.59155ZM3.28032 6.39417H5.99285L7.4311 11.3481L3.28032 6.39417ZM9.5 12.9681L7.59142 6.39417H11.4086L9.5 12.9681ZM11.5689 11.3481L13.0071 6.39417H15.7196L11.5689 11.3481ZM12.9827 4.8027L11.8369 1.59155H13.0983L15.7397 4.8027H12.9827Z" fill="#1F1F1F"/>
</svg>
