<svg width="12" height="12" viewBox="0 0 12 12" fill="none" xmlns="http://www.w3.org/2000/svg">
<path d="M4.29206 11.9375C4.37235 11.9796 4.45919 12 4.54519 12C4.70202 12 4.85617 11.9324 4.96264 11.8059L10.7808 4.89679C10.9175 4.7345 10.9476 4.50773 10.8582 4.31537C10.7687 4.12301 10.5758 3.99999 10.3636 3.99999H7.35725L9.36925 0.838288C9.47612 0.670325 9.48299 0.45749 9.38721 0.282981C9.29143 0.108436 9.10816 0 8.90906 0H5.63635C5.44169 0 5.2618 0.103709 5.16431 0.272145L1.16433 7.18121C1.06662 7.34998 1.06643 7.55801 1.16382 7.72696C1.26123 7.8959 1.44138 7.99998 1.63636 7.99998H4.9222L4.01919 11.311C3.95184 11.558 4.06533 11.8187 4.29206 11.9375Z" fill="#1AC9B0"/>
</svg>
