<svg width="16" height="12" viewBox="0 0 16 12" fill="none" xmlns="http://www.w3.org/2000/svg">
<g clip-path="url(#clip0_121_1108)">
<path d="M16 0.841001C16 0.836016 15.9993 0.831186 15.9992 0.826201C15.9989 0.814263 15.9983 0.802386 15.9974 0.790447C15.9966 0.780417 15.9957 0.770447 15.9945 0.76054C15.9931 0.74937 15.9913 0.738293 15.9893 0.727217C15.9875 0.716878 15.9856 0.706601 15.9832 0.696417C15.9808 0.685924 15.978 0.675555 15.9751 0.665155C15.9722 0.654847 15.9692 0.64457 15.9658 0.634478C15.9624 0.624386 15.9586 0.614447 15.9547 0.604478C15.9508 0.594509 15.9468 0.58457 15.9424 0.574847C15.9381 0.565124 15.9332 0.555555 15.9283 0.546017C15.9234 0.536417 15.9184 0.526878 15.913 0.517524C15.9078 0.508447 15.9022 0.499555 15.8965 0.490663C15.8904 0.481155 15.8841 0.47177 15.8775 0.462632C15.8717 0.454478 15.8655 0.446478 15.8592 0.438539C15.8518 0.429124 15.8442 0.419924 15.8362 0.41094C15.8329 0.407186 15.8301 0.403155 15.8267 0.399463C15.8232 0.39577 15.8195 0.392632 15.816 0.389032C15.8078 0.38057 15.7994 0.372417 15.7908 0.364386C15.7831 0.357155 15.7753 0.350078 15.7673 0.343278C15.7592 0.336386 15.7508 0.329832 15.7423 0.323309C15.7333 0.316417 15.7243 0.309647 15.7151 0.303278C15.7068 0.297555 15.6983 0.292201 15.6897 0.286847C15.68 0.280786 15.6702 0.274755 15.6603 0.269247C15.6513 0.264263 15.6421 0.259678 15.6328 0.255093C15.6229 0.250201 15.6131 0.24534 15.603 0.24097C15.5929 0.23657 15.5827 0.232693 15.5724 0.228786C15.5627 0.225124 15.553 0.221463 15.5432 0.218263C15.5324 0.214724 15.5213 0.211678 15.5102 0.208663C15.5004 0.206016 15.4907 0.203401 15.4807 0.201186C15.4698 0.198755 15.4587 0.196755 15.4475 0.194847C15.4368 0.193032 15.4262 0.19137 15.4156 0.190047C15.4051 0.188786 15.3946 0.187863 15.384 0.187063C15.3721 0.18617 15.3603 0.185555 15.3485 0.185309C15.3434 0.185186 15.3385 0.18457 15.3335 0.18457H0.666625C0.661562 0.18457 0.656656 0.185217 0.651625 0.185309C0.63975 0.185586 0.627937 0.186201 0.616125 0.187063C0.6055 0.187863 0.594969 0.188786 0.5845 0.190047C0.573812 0.19134 0.563219 0.193032 0.552625 0.194847C0.541438 0.196755 0.530312 0.198724 0.519344 0.201186C0.509438 0.203401 0.499656 0.206016 0.489844 0.208663C0.47875 0.211678 0.467719 0.214693 0.456875 0.218263C0.447062 0.221463 0.437406 0.225124 0.427719 0.228786C0.417406 0.232693 0.407156 0.236601 0.397094 0.24097C0.387031 0.24534 0.377156 0.250201 0.367281 0.255093C0.358031 0.259678 0.348813 0.264263 0.339813 0.269247C0.329844 0.274786 0.320125 0.280786 0.310375 0.286847C0.301781 0.292201 0.29325 0.297586 0.284938 0.303309C0.275719 0.309678 0.266719 0.316447 0.257781 0.323309C0.249313 0.329801 0.240938 0.336386 0.232781 0.343278C0.22475 0.350078 0.216969 0.357155 0.209219 0.364386C0.200594 0.372386 0.192219 0.38057 0.184063 0.389032C0.180594 0.392632 0.176813 0.39577 0.173406 0.399463C0.169969 0.403155 0.167156 0.407186 0.163844 0.41094C0.155906 0.419924 0.148281 0.429124 0.140844 0.438539C0.134562 0.446478 0.128406 0.454478 0.122531 0.462632C0.115938 0.471801 0.109719 0.481186 0.103594 0.490663C0.097875 0.499555 0.09225 0.508447 0.0870312 0.517524C0.0816562 0.526847 0.0766563 0.536386 0.07175 0.546017C0.0668437 0.555586 0.0620313 0.565124 0.057625 0.574847C0.0532187 0.58457 0.0492813 0.594509 0.045375 0.604478C0.0414688 0.614447 0.037625 0.624386 0.0342188 0.634478C0.0308125 0.644601 0.027875 0.654878 0.0249375 0.665186C0.022 0.675555 0.0191875 0.685924 0.0167813 0.696386C0.0144375 0.70657 0.0125313 0.716878 0.0106875 0.727247C0.00871875 0.738324 0.00690625 0.74937 0.00553125 0.760509C0.00428125 0.770447 0.003375 0.780416 0.00259375 0.790478C0.00165625 0.802355 0.00103125 0.814232 0.00075 0.82614C0.000625 0.831124 0 0.835955 0 0.84097V11.3435C0 11.3464 0.00040625 11.3492 0.0004375 11.3521C0.00059375 11.3643 0.0014375 11.3764 0.0023125 11.3885C0.003 11.3985 0.0035 11.4085 0.004625 11.4183C0.0058125 11.4285 0.00765625 11.4386 0.00934375 11.4487C0.0112187 11.4601 0.012875 11.4715 0.0153437 11.4827C0.0172187 11.4912 0.0197188 11.4995 0.0219375 11.508C0.0251563 11.5202 0.0281875 11.5325 0.0320938 11.5444C0.0347813 11.5527 0.0381563 11.5608 0.0411875 11.5689C0.0455 11.5805 0.0495938 11.5922 0.0545313 11.6034C0.0587187 11.613 0.0636562 11.6222 0.0683125 11.6316C0.073 11.641 0.077375 11.6505 0.0824687 11.6597C0.0884687 11.6704 0.0953125 11.6808 0.101937 11.6912C0.106625 11.6986 0.111 11.7062 0.115969 11.7133C0.123156 11.7237 0.131188 11.7337 0.139031 11.7437C0.144406 11.7506 0.149531 11.7576 0.155188 11.7643C0.162656 11.7731 0.170813 11.7814 0.178813 11.7899C0.185875 11.7974 0.192813 11.805 0.200219 11.8121C0.207406 11.8191 0.215125 11.8256 0.222719 11.8323C0.231906 11.8404 0.241062 11.8484 0.250719 11.856C0.253031 11.8578 0.255031 11.8599 0.257375 11.8616C0.2625 11.8656 0.267969 11.8688 0.273188 11.8725C0.283531 11.88 0.293906 11.8874 0.304688 11.8943C0.312875 11.8995 0.321187 11.9043 0.329531 11.9091C0.339906 11.9151 0.350344 11.921 0.361094 11.9265C0.370281 11.9312 0.379531 11.9354 0.388844 11.9396C0.399125 11.9443 0.409469 11.9488 0.420031 11.953C0.430094 11.9569 0.44025 11.9605 0.450469 11.9639C0.460656 11.9674 0.470844 11.9707 0.48125 11.9736C0.492188 11.9768 0.503187 11.9795 0.51425 11.982C0.524219 11.9843 0.534187 11.9865 0.544312 11.9884C0.556219 11.9905 0.568156 11.9922 0.580125 11.9937C0.589687 11.995 0.599219 11.9962 0.608906 11.997C0.62175 11.9981 0.634562 11.9986 0.647406 11.9989C0.653844 11.9991 0.660125 11.9999 0.666625 11.9999H15.3333C15.3398 11.9999 15.3461 11.9991 15.3525 11.9989C15.3653 11.9986 15.3782 11.9981 15.391 11.997C15.4007 11.9962 15.4102 11.995 15.4198 11.9938C15.4317 11.9922 15.4437 11.9906 15.4556 11.9884C15.4657 11.9865 15.4757 11.9843 15.4857 11.982C15.4967 11.9795 15.5077 11.9768 15.5187 11.9737C15.5291 11.9707 15.5393 11.9674 15.5495 11.964C15.5597 11.9605 15.5698 11.9569 15.5799 11.953C15.5905 11.9488 15.6008 11.9443 15.6111 11.9396C15.6204 11.9354 15.6297 11.9312 15.6388 11.9265C15.6496 11.921 15.66 11.9152 15.6703 11.9092C15.6787 11.9043 15.687 11.8995 15.6952 11.8943C15.706 11.8874 15.7164 11.88 15.7267 11.8726C15.7319 11.8688 15.7374 11.8656 15.7425 11.8616C15.7449 11.8599 15.7469 11.8578 15.7492 11.856C15.7588 11.8484 15.7679 11.8404 15.7771 11.8323C15.7847 11.8256 15.7924 11.819 15.7997 11.8121C15.8071 11.805 15.814 11.7974 15.821 11.7899C15.829 11.7814 15.8372 11.773 15.8447 11.7642C15.8503 11.7576 15.8554 11.7506 15.8608 11.7437C15.8687 11.7336 15.8767 11.7237 15.8839 11.7133C15.8888 11.7062 15.8932 11.6986 15.8979 11.6913C15.9045 11.6808 15.9114 11.6704 15.9174 11.6596C15.9225 11.6506 15.9268 11.6411 15.9315 11.6317C15.9361 11.6223 15.9411 11.613 15.9453 11.6034C15.9502 11.5921 15.9543 11.5805 15.9587 11.5689C15.9617 11.5608 15.9651 11.5527 15.9678 11.5444C15.9717 11.5325 15.9747 11.5202 15.9779 11.508C15.9802 11.4996 15.9827 11.4912 15.9846 11.4827C15.987 11.4715 15.9887 11.4601 15.9905 11.4488C15.9922 11.4386 15.9941 11.4285 15.9952 11.4183C15.9964 11.4085 15.9969 11.3985 15.9976 11.3886C15.9984 11.3764 15.9993 11.3643 15.9994 11.3521C15.9995 11.3492 15.9999 11.3464 15.9999 11.3435V0.841001H16ZM1.33331 2.32482L4.62141 5.26792L1.33331 9.43042V2.32482ZM8.78553 5.81466C8.33991 6.21331 7.66003 6.21331 7.21428 5.81454L2.39109 1.4974H13.6089L8.78553 5.81466ZM5.61091 6.15362L6.31753 6.78608C7.27191 7.63986 8.72803 7.63986 9.68228 6.7862L10.389 6.15362L13.9702 10.6872H2.02972L5.61091 6.15362ZM11.3785 5.26792L14.6666 2.32482V9.43045L11.3785 5.26792Z" fill="#25776B"/>
</g>
<defs>
<clipPath id="clip0_121_1108">
<rect width="16" height="12" fill="white"/>
</clipPath>
</defs>
</svg>
