<svg width="20" height="16" viewBox="0 0 20 16" fill="none" xmlns="http://www.w3.org/2000/svg">
<path d="M14.8959 9.6C15.8448 9.6 16.6198 10.3164 16.6646 11.2171L16.6666 11.2995V11.6C16.6666 13.1022 15.8576 14.2268 14.6166 14.9521C13.3962 15.6653 11.7558 16 9.99998 16C8.24419 16 6.60377 15.6653 5.3834 14.9521C4.17995 14.2487 3.38274 13.17 3.33553 11.7355L3.33331 11.6V11.2996C3.33331 10.3881 4.08038 9.64489 5.01833 9.60196L5.1041 9.6H14.8959ZM9.99998 0C12.3011 0 14.1666 1.79086 14.1666 4C14.1666 6.20912 12.3011 8 9.99998 8C7.69881 8 5.83331 6.20912 5.83331 4C5.83331 1.79086 7.69881 0 9.99998 0Z" fill="#212121"/>
</svg>
