<svg width="16" height="16" viewBox="0 0 16 16" fill="none" xmlns="http://www.w3.org/2000/svg">
<g clip-path="url(#clip0_38_481)">
<path d="M15.9592 6.55121C15.8752 6.34596 15.6759 6.21148 15.4542 6.21049L13.58 6.20212C13.1849 4.97726 12.3905 3.88961 11.2791 3.13979C10.0166 2.28802 8.4952 1.96274 6.99516 2.22387C5.49951 2.48424 4.18085 3.29942 3.28214 4.51921C3.10252 4.76298 3.15454 5.10625 3.39835 5.28588C3.64212 5.46554 3.98543 5.41349 4.16502 5.16967C5.68465 3.10708 8.54006 2.61474 10.6658 4.04884C11.4646 4.58778 12.062 5.34137 12.4119 6.1969L11.0266 6.19072C11.0258 6.19072 11.025 6.19072 11.0242 6.19072C10.8034 6.19072 10.604 6.32319 10.5186 6.52694C10.4328 6.73145 10.4786 6.96748 10.6348 7.12499L12.8387 9.34871C12.8401 9.35014 12.8417 9.35131 12.8431 9.3527C12.8469 9.3565 12.8511 9.35993 12.855 9.36363C12.8641 9.37203 12.8731 9.38048 12.8827 9.38823C12.8869 9.39166 12.8914 9.3947 12.8957 9.39802C12.9055 9.40552 12.9153 9.41301 12.9255 9.41977C12.93 9.42273 12.9348 9.42525 12.9393 9.42811C12.95 9.43472 12.9606 9.4413 12.9717 9.44719C12.9758 9.44934 12.9801 9.4511 12.9843 9.45318C12.9964 9.45918 13.0086 9.4651 13.0211 9.47018C13.0242 9.47146 13.0276 9.47248 13.0308 9.47372C13.0448 9.4791 13.0589 9.48414 13.0732 9.48838C13.0756 9.48911 13.0782 9.48959 13.0806 9.49028C13.096 9.4946 13.1116 9.4984 13.1274 9.50132C13.128 9.50143 13.1286 9.50165 13.1292 9.50176C13.1321 9.50231 13.135 9.50249 13.1379 9.50297C13.1513 9.5052 13.1648 9.50728 13.1784 9.50849C13.1813 9.50878 13.1843 9.50874 13.1872 9.509C13.2 9.50995 13.2128 9.51101 13.2257 9.51108C13.2265 9.51108 13.2273 9.51108 13.2281 9.51108C13.2398 9.51108 13.2513 9.51013 13.2628 9.50936C13.2678 9.50907 13.2729 9.50907 13.2778 9.50863C13.2872 9.50779 13.2963 9.50626 13.3055 9.50494C13.3131 9.50388 13.3207 9.50297 13.3281 9.50158C13.3371 9.49993 13.3459 9.4977 13.3548 9.49562C13.3622 9.49387 13.3696 9.49218 13.3769 9.4901C13.3859 9.48758 13.3947 9.48465 13.4036 9.48166C13.4103 9.47935 13.417 9.47705 13.4237 9.47449C13.4328 9.47102 13.4417 9.46729 13.4506 9.46334C13.4566 9.46067 13.4625 9.45786 13.4684 9.45497C13.4775 9.45051 13.4866 9.44594 13.4954 9.44101C13.5006 9.43809 13.5058 9.4349 13.5109 9.4318C13.52 9.42635 13.529 9.42087 13.5377 9.41491C13.5422 9.41188 13.5463 9.40855 13.5507 9.40541C13.5729 9.38921 13.5944 9.37185 13.6141 9.35226L15.8377 7.14831C15.9952 6.99208 16.0431 6.75646 15.9592 6.55121Z" fill="#18403A"/>
<path d="M12.6015 10.7146C12.3577 10.535 12.0145 10.587 11.8348 10.8307C10.315 12.893 7.45972 13.3852 5.33436 11.9511C4.5357 11.4123 3.93838 10.6588 3.58846 9.80352L4.97339 9.80969C4.9742 9.80969 4.97504 9.80969 4.97584 9.80969C4.97613 9.80966 4.97632 9.80969 4.97657 9.80969C5.27938 9.80969 5.52487 9.5642 5.52487 9.26139C5.52487 9.10224 5.4571 8.95899 5.34883 8.85879L3.16155 6.65159C3.16016 6.6502 3.15863 6.649 3.1572 6.64764C3.15292 6.64344 3.14832 6.63957 3.1439 6.63547C3.13531 6.62754 3.12679 6.61953 3.11776 6.61219C3.11264 6.60802 3.10712 6.60429 3.10186 6.60031C3.09298 6.59362 3.08424 6.58682 3.07503 6.58071C3.06918 6.5768 3.06297 6.57344 3.05694 6.56979C3.04769 6.56416 3.03855 6.55842 3.02905 6.55334C3.02323 6.55027 3.01709 6.54767 3.01117 6.54478C3.00083 6.53977 2.99055 6.53469 2.97992 6.53034C2.97484 6.52826 2.9695 6.52662 2.96431 6.52468C2.95232 6.52018 2.94029 6.51576 2.92797 6.5121C2.92355 6.51079 2.91898 6.50987 2.91449 6.50867C2.90114 6.50505 2.88773 6.50169 2.87406 6.49913C2.87296 6.49894 2.87198 6.49858 2.87088 6.4984C2.86686 6.49767 2.86287 6.49745 2.85882 6.49682C2.84602 6.49478 2.83327 6.49288 2.82029 6.49174C2.81298 6.49109 2.80574 6.49094 2.79843 6.49057C2.79042 6.49017 2.78249 6.48929 2.77449 6.48926C2.77368 6.48926 2.77284 6.48926 2.77204 6.48926C2.76995 6.48926 2.76791 6.48955 2.76582 6.48955C2.75665 6.48966 2.74762 6.49035 2.73852 6.4909C2.72989 6.49145 2.72127 6.49178 2.71271 6.49273C2.70259 6.49383 2.69264 6.49554 2.68267 6.49719C2.67517 6.49843 2.66761 6.49949 2.66019 6.50103C2.64999 6.50315 2.63997 6.50589 2.62996 6.50859C2.62283 6.5105 2.61566 6.51225 2.60861 6.51444C2.59892 6.51748 2.58945 6.5211 2.57999 6.52464C2.57282 6.52731 2.56558 6.52983 2.55853 6.53283C2.54957 6.53663 2.54095 6.54094 2.53221 6.54518C2.52497 6.54873 2.51766 6.55209 2.51057 6.55593C2.50224 6.56046 2.49427 6.56547 2.48619 6.57041C2.47921 6.57468 2.47208 6.57881 2.46528 6.58342C2.45713 6.5889 2.44938 6.59493 2.44156 6.60086C2.43535 6.60553 2.42906 6.60999 2.42306 6.61496C2.41451 6.62202 2.40643 6.62962 2.39832 6.63719C2.39433 6.64092 2.39002 6.64428 2.38611 6.64812L2.38066 6.65349C2.38037 6.65378 2.38004 6.65408 2.37975 6.65441L0.162346 8.85214C0.00483753 9.00826 -0.0431205 9.24388 0.040806 9.44913C0.124769 9.65438 0.324095 9.78886 0.545864 9.78988L2.42025 9.79825C2.81543 11.0229 3.60977 12.1104 4.72099 12.8602C5.69916 13.5202 6.83261 13.864 7.99124 13.864C8.3279 13.864 8.66689 13.835 9.00461 13.7762C10.5002 13.5159 11.8187 12.7009 12.7175 11.4813C12.8972 11.2375 12.8452 10.8943 12.6015 10.7146Z" fill="#18403A"/>
</g>
<defs>
<clipPath id="clip0_38_481">
<rect width="16" height="16" fill="white"/>
</clipPath>
</defs>
</svg>
