<svg width="16" height="16" viewBox="0 0 16 16" fill="none" xmlns="http://www.w3.org/2000/svg">
<path d="M15 8.48125C14.8844 7.1375 13.7875 6.04063 12.4406 6.08438V3.60625C12.4406 3.3125 12.2375 3.05625 11.95 2.9875C10.5531 2.65313 8.36563 1.79688 6.8 0.493753C6.59688 0.325003 6.30938 0.296878 6.07812 0.428128C4.96875 1.05625 1.8625 2.7375 0.834375 2.98438C0.546875 3.05625 0.34375 3.3125 0.34375 3.60625V8.95938C0.34375 12.6531 3.05625 15.6563 6.39375 15.6563C7.9125 15.6563 9.3625 15.0313 10.4812 13.8969C10.5344 13.8438 10.575 13.7813 10.6062 13.7156H15.0188C15.3719 13.7156 15.6562 13.4313 15.6562 13.0781V9.11875C15.6187 8.47813 15 8.48125 15 8.48125V8.48125ZM13.7156 8.48125H11.3281C11.4281 7.84375 11.925 7.35938 12.5219 7.35938C13.1188 7.35938 13.6156 7.84375 13.7156 8.48125ZM1.61875 8.95938V4.075C2.9875 3.57813 5.37188 2.28125 6.33125 1.74688C7.84375 2.9 9.71562 3.6875 11.1656 4.09688V6.50938C10.0969 7.26563 10.025 8.48125 10.025 8.48125C9.67187 8.48125 9.3875 8.76563 9.3875 9.11875C9.3875 9.11875 9.39063 13.1406 9.39375 13.1719C8.54688 13.9531 7.4875 14.3813 6.39062 14.3813C3.7625 14.3813 1.61875 11.95 1.61875 8.95938V8.95938ZM14.3813 12.4406H10.6625V9.75938H14.3781V12.4406H14.3813Z" fill="#25776B"/>
</svg>
