<svg width="24" height="24" viewBox="0 0 24 24" fill="none" xmlns="http://www.w3.org/2000/svg">
<path d="M23.3776 4.19226H8.58614V3.6074C8.58614 2.74959 7.88827 2.05171 7.03045 2.05171H4.61639C3.75858 2.05171 3.0607 2.74959 3.0607 3.6074V4.19226H0.622266C0.278578 4.19226 0 4.47093 0 4.81457C0 5.15821 0.278578 5.43684 0.622266 5.43684H3.06061V6.02151C3.06061 6.87932 3.75848 7.5772 4.6163 7.5772H7.03041C7.88822 7.5772 8.58609 6.87932 8.58609 6.02151V5.43684H23.3776C23.7213 5.43684 23.9999 5.15816 23.9999 4.81457C24 4.47093 23.7213 4.19226 23.3776 4.19226ZM7.34161 6.02151C7.34161 6.19307 7.20201 6.33266 7.03045 6.33266H4.61634C4.44478 6.33266 4.30519 6.19307 4.30519 6.02151V3.6074C4.30519 3.43584 4.44478 3.29624 4.61634 3.29624H7.03045C7.20201 3.29624 7.34161 3.43584 7.34161 3.6074V6.02151Z" fill="#254C47"/>
<path d="M23.3777 11.1232H20.9393V10.5382C20.9393 9.68034 20.2415 8.98247 19.3837 8.98247H16.9695C16.1117 8.98247 15.4139 9.68034 15.4139 10.5382V11.1232H0.622266C0.278578 11.1232 0 11.4018 0 11.7455C0 12.0891 0.278578 12.3677 0.622266 12.3677H15.4138V12.9522C15.4138 13.81 16.1117 14.5079 16.9695 14.5079H19.3836C20.2414 14.5079 20.9393 13.81 20.9393 12.9522V12.3677H23.3777C23.7214 12.3677 24 12.0891 24 11.7455C24 11.4018 23.7214 11.1232 23.3777 11.1232ZM19.6948 12.9523C19.6948 13.1238 19.5552 13.2634 19.3836 13.2634H16.9695C16.7979 13.2634 16.6583 13.1238 16.6583 12.9523V10.5382C16.6583 10.3666 16.7979 10.227 16.9695 10.227H19.3836C19.5552 10.227 19.6948 10.3666 19.6948 10.5382V12.9523Z" fill="#1AC9B0"/>
<path d="M23.3777 18.5632H12.9578V17.9785C12.9578 17.1207 12.2599 16.4228 11.4021 16.4228H8.98795C8.13014 16.4228 7.43227 17.1207 7.43227 17.9785V18.5632H0.622266C0.278578 18.5632 0 18.8418 0 19.1854C0 19.5291 0.278578 19.8077 0.622266 19.8077H7.43222V20.3925C7.43222 21.2504 8.13009 21.9482 8.98791 21.9482H11.402C12.2598 21.9482 12.9577 21.2504 12.9577 20.3925V19.8077H23.3777C23.7214 19.8077 24 19.529 24 19.1854C24 18.8417 23.7214 18.5632 23.3777 18.5632ZM11.7132 20.3926C11.7132 20.5641 11.5736 20.7037 11.402 20.7037H8.98791C8.81634 20.7037 8.67675 20.5641 8.67675 20.3926V17.9785C8.67675 17.8069 8.81634 17.6673 8.98791 17.6673H11.402C11.5736 17.6673 11.7132 17.8069 11.7132 17.9785V20.3926Z" fill="#254C47"/>
</svg>
