<svg width="12" height="12" viewBox="0 0 12 12" fill="none" xmlns="http://www.w3.org/2000/svg">
<g clip-path="url(#clip0_121_1207)">
<path d="M11.9895 4.63487C11.9641 4.55712 11.8969 4.50041 11.8159 4.4886L7.93028 3.9239L6.19258 0.402968C6.15649 0.329507 6.08174 0.283112 6.00012 0.283112C5.9185 0.283112 5.84353 0.329507 5.80766 0.402968L4.06975 3.92412L0.184094 4.48881C0.103116 4.50063 0.0360998 4.55712 0.0105391 4.63509C-0.014592 4.71263 0.00624317 4.79812 0.0648824 4.85504L2.87677 7.59584L2.21284 11.466C2.19909 11.5466 2.23217 11.628 2.29812 11.6761C2.36449 11.7246 2.45234 11.7309 2.52429 11.6924L6.00012 9.86537L9.47552 11.6924C9.50688 11.709 9.54146 11.7171 9.57561 11.7171C9.62008 11.7171 9.66432 11.7034 9.70191 11.6761C9.76807 11.628 9.80115 11.5466 9.78719 11.466L9.12347 7.59605L11.9354 4.85504C11.9938 4.79769 12.0148 4.71242 11.9895 4.63487Z" fill="#6C6464"/>
</g>
<defs>
<clipPath id="clip0_121_1207">
<rect width="12" height="12" fill="white"/>
</clipPath>
</defs>
</svg>
