<svg width="17" height="17" viewBox="0 0 17 17" fill="none" xmlns="http://www.w3.org/2000/svg">
<path d="M13.4583 5.59584V5.57813C13.4583 5.56042 13.4583 5.54271 13.4495 5.52501C13.4495 5.51615 13.4495 5.5073 13.4406 5.5073C13.4406 5.48959 13.4318 5.47188 13.4318 5.46303C13.4318 5.45417 13.4229 5.45417 13.4229 5.44532C13.4141 5.42761 13.4141 5.4099 13.4052 5.40105C13.4052 5.40105 13.4052 5.39219 13.3964 5.39219C13.3875 5.37449 13.3786 5.35678 13.3698 5.33907C13.3344 5.27709 13.299 5.22396 13.2458 5.17969L11.1208 3.05469C10.988 2.92188 10.8109 2.84219 10.6161 2.84219C10.2266 2.84219 9.90781 3.16094 9.90781 3.55053V4.96719H1.41667C0.6375 4.95834 0 5.59584 0 6.37501V15.5833C0 16.3625 0.6375 17 1.41667 17H11.3333C12.1125 17 12.75 16.3625 12.75 15.5833V14.875C12.75 14.4854 12.4312 14.1667 12.0417 14.1667C11.6521 14.1667 11.3333 14.4854 11.3333 14.875V15.5833H1.41667V6.37501H9.91667V7.79167C9.91667 7.97761 9.9875 8.16355 10.1203 8.29636C10.3948 8.57084 10.8464 8.57084 11.1208 8.29636L13.237 6.18021C13.2724 6.1448 13.3078 6.10938 13.3344 6.06511V6.05626C13.3432 6.03855 13.3521 6.02084 13.3698 6.00313C13.3698 6.00313 13.3698 5.99428 13.3786 5.99428C13.3875 5.97657 13.3964 5.95886 13.3964 5.95001C13.3964 5.94115 13.3964 5.94115 13.4052 5.9323C13.4141 5.91459 13.4141 5.89688 13.4229 5.88803C13.4229 5.87917 13.4229 5.87917 13.4318 5.87032C13.4318 5.85261 13.4406 5.8349 13.4406 5.82605C13.4406 5.81719 13.4406 5.80834 13.4406 5.79949C13.4406 5.78178 13.4495 5.77292 13.4495 5.75521C13.4495 5.73751 13.4495 5.71094 13.4495 5.69324V5.66667C13.4583 5.64011 13.4583 5.6224 13.4583 5.59584Z" fill="#1AC9B0"/>
<path d="M17 1.41667V10.625C17 11.4042 16.3625 12.0417 15.5833 12.0417H7.08333V13.4583C7.08333 13.6443 7.0125 13.8302 6.87968 13.963C6.60521 14.2375 6.15364 14.2375 5.87916 13.963L3.75416 11.838C3.70989 11.7937 3.66562 11.7318 3.63021 11.6786C3.62135 11.6609 3.6125 11.6432 3.60364 11.6255C3.60364 11.6255 3.60364 11.6167 3.59479 11.6167C3.58593 11.599 3.58594 11.5813 3.57708 11.5635C3.57708 11.5547 3.57708 11.5547 3.56823 11.5458C3.56823 11.5281 3.55937 11.5104 3.55937 11.5016C3.55937 11.4927 3.55937 11.4839 3.55052 11.4839C3.55052 11.4661 3.54166 11.4484 3.54166 11.4307V11.413C3.54166 11.3865 3.54166 11.3688 3.54166 11.3422V11.3333C3.54166 11.3156 3.54166 11.2891 3.54166 11.2714C3.54166 11.2536 3.54166 11.2448 3.55052 11.2271C3.55052 11.2182 3.55052 11.2094 3.55052 11.2005C3.55052 11.1828 3.55937 11.1651 3.55937 11.1562C3.55937 11.1474 3.55937 11.1474 3.56823 11.1385C3.56823 11.1208 3.57708 11.1031 3.58593 11.0943C3.58593 11.0854 3.58593 11.0854 3.59479 11.0766C3.60364 11.0589 3.6125 11.0411 3.6125 11.0234L3.62135 11.0146C3.63021 10.9969 3.63906 10.9792 3.65677 10.9615C3.65677 10.9615 3.65677 10.9615 3.65677 10.9526C3.68333 10.9083 3.71875 10.8729 3.75416 10.8375L5.87031 8.72135C6.00312 8.58854 6.18021 8.51771 6.375 8.51771C6.76458 8.51771 7.08333 8.83646 7.08333 9.22604V10.6427H15.5833V1.41667H5.66666V2.125C5.66666 2.51458 5.34791 2.83333 4.95833 2.83333C4.56875 2.83333 4.25 2.51458 4.25 2.125V1.41667C4.25 0.6375 4.8875 0 5.66666 0H15.5833C16.3625 0 17 0.6375 17 1.41667Z" fill="#254C47"/>
</svg>
