<svg width="27" height="27" viewBox="0 0 27 27" fill="none" xmlns="http://www.w3.org/2000/svg">
<path d="M23.2984 4.11131C23.2984 4.11131 25.4838 3.25912 25.3017 5.32872C25.241 6.18092 24.6946 9.16357 24.2697 12.3897L22.8127 21.9464C22.8127 21.9464 22.6913 23.3464 21.5985 23.59C20.5058 23.8334 18.8667 22.7378 18.5631 22.4943C18.3203 22.3117 14.0101 19.5725 12.4923 18.2333C12.0674 17.8681 11.5817 17.1376 12.553 16.2854L18.9274 10.1984C19.6559 9.46794 20.3844 7.76357 17.349 9.83317L8.84987 15.6159C8.84987 15.6159 7.87854 16.2246 6.05734 15.6768L2.1113 14.4593C2.1113 14.4593 0.654306 13.5463 3.14333 12.6332C9.21414 9.77226 16.6812 6.85046 23.2984 4.11131Z" fill="#1AC9B0"/>
</svg>
